<svg width="32" height="32" viewBox="0 0 73 73" fill="none" xmlns="http://www.w3.org/2000/svg">
<path d="M71.47 28.055C69.795 28.415 68.085 27.455 67.545 25.79C67.005 24.125 67.82 22.345 69.385 21.655C67.595 17.525 65.03 13.73 61.75 10.45C61.21 9.91 60.66 9.395 60.095 8.895C58.95 10.155 57.015 10.38 55.605 9.35499C54.19 8.325 53.805 6.405 54.665 4.92C50.11 2.2 45.005 0.524995 39.65 0.0149951C39.485 1.73 38.04 3.075 36.28 3.075C34.515 3.075 33.065 1.725 32.91 -0.00500488C27.545 0.474995 22.425 2.12499 17.845 4.825C18.78 6.31999 18.415 8.29999 16.965 9.35499C15.515 10.41 13.51 10.14 12.38 8.77999C11.77 9.31499 11.175 9.87 10.595 10.45C7.34 13.705 4.78 17.475 2.995 21.575C4.685 22.205 5.59 24.06 5.025 25.79C4.46 27.525 2.63 28.49 0.89 28C0.3 30.605 0 33.295 0 36.03C0 38.71 0.29 41.35 0.855 43.905C2.605 43.39 4.455 44.36 5.025 46.105C5.595 47.855 4.66 49.73 2.93 50.34C4.72 54.495 7.3 58.315 10.59 61.61C11.145 62.165 11.715 62.695 12.3 63.21C13.415 61.77 15.48 61.465 16.96 62.54C18.445 63.62 18.79 65.68 17.76 67.185C22.355 69.91 27.505 71.575 32.9 72.055C32.975 70.255 34.46 68.815 36.28 68.815C38.095 68.815 39.575 70.24 39.66 72.035C45.04 71.525 50.165 69.835 54.74 67.09C53.785 65.595 54.15 63.595 55.605 62.54C57.05 61.49 59.04 61.75 60.175 63.095C60.715 62.615 61.24 62.125 61.755 61.61C65.07 58.295 67.66 54.45 69.45 50.27C67.845 49.595 67 47.795 67.55 46.11C68.095 44.435 69.825 43.475 71.51 43.855C72.065 41.315 72.355 38.695 72.355 36.035C72.35 33.31 72.05 30.64 71.47 28.055ZM36.175 4.67C50.315 4.67 62.3 14.08 66.2 26.97C63.36 23.305 60.325 19.315 56.945 14.795C56.445 14.13 55.88 13.865 54.925 13.865C54.915 13.865 54.91 13.865 54.9 13.865C50.255 13.885 45.535 13.885 40.965 13.88C39.38 13.88 37.795 13.88 36.205 13.88C36.175 13.88 36.145 13.88 36.115 13.875C34.545 13.875 32.97 13.875 31.4 13.88C26.85 13.885 22.14 13.89 17.51 13.86C17.495 13.86 17.485 13.86 17.47 13.86C16.435 13.86 15.855 14.125 15.33 14.83C12.64 18.435 9.46 22.67 6.17 26.905C10.095 14.045 22.06 4.67 36.175 4.67ZM36.3 59.245C36.255 59.245 36.21 59.24 36.16 59.23L35.83 59.16C35.575 59.11 35.37 58.915 35.305 58.665L27.76 30.675C27.705 30.47 27.75 30.245 27.88 30.075C28.01 29.905 28.21 29.805 28.425 29.805H43.845C44.06 29.805 44.26 29.905 44.39 30.075C44.52 30.245 44.565 30.465 44.51 30.675L36.965 58.735C36.88 59.04 36.605 59.245 36.3 59.245ZM52.83 17.155L46.405 25.97C46.275 26.15 46.07 26.255 45.85 26.255C45.63 26.255 45.425 26.15 45.295 25.975L38.845 17.155C38.69 16.945 38.67 16.67 38.785 16.435C38.9 16.205 39.14 16.06 39.4 16.06H52.27C52.53 16.06 52.765 16.205 52.885 16.435C53.005 16.67 52.98 16.945 52.83 17.155ZM55.18 17.56C55.31 17.385 55.515 17.275 55.735 17.275C55.955 17.275 56.16 17.38 56.29 17.555L62.78 26.4C62.935 26.61 62.955 26.885 62.84 27.12C62.725 27.35 62.485 27.495 62.225 27.495H49.29C49.03 27.495 48.795 27.35 48.675 27.12C48.555 26.89 48.58 26.61 48.73 26.4L55.18 17.56ZM42.9 26.325C43.055 26.535 43.075 26.81 42.96 27.045C42.845 27.275 42.605 27.42 42.345 27.42H29.515C29.255 27.42 29.02 27.275 28.9 27.045C28.785 26.815 28.805 26.535 28.96 26.325L35.385 17.555C35.515 17.38 35.72 17.275 35.94 17.275C36.155 17.28 36.365 17.38 36.495 17.555L42.9 26.325ZM33.015 17.155L26.81 25.66C26.68 25.835 26.475 25.94 26.255 25.945C26.035 25.945 25.83 25.84 25.7 25.665L19.475 17.155C19.32 16.945 19.3 16.67 19.415 16.435C19.53 16.205 19.77 16.06 20.03 16.06H32.46C32.72 16.06 32.955 16.205 33.075 16.435C33.19 16.665 33.17 16.945 33.015 17.155ZM23.605 26.415C23.76 26.625 23.78 26.9 23.665 27.135C23.55 27.365 23.31 27.51 23.05 27.51H10.1C9.84 27.51 9.605 27.365 9.485 27.135C9.365 26.905 9.39 26.625 9.54 26.415L16 17.555C16.13 17.375 16.335 17.27 16.555 17.27C16.775 17.27 16.98 17.375 17.11 17.55L23.605 26.415ZM9.875 29.655C10.94 29.655 11.98 29.655 13.005 29.65C16.805 29.645 20.395 29.64 23.985 29.71C24.84 29.725 25.575 30.855 25.745 31.48C27.325 37.195 28.885 43.015 30.395 48.645C30.76 50.005 31.125 51.365 31.49 52.725C31.995 54.595 32.515 56.53 32.76 58.6C32.795 58.905 32.625 59.2 32.34 59.32C32.255 59.355 32.165 59.37 32.075 59.37C31.87 59.37 31.665 59.275 31.535 59.105L9.335 30.77C9.17 30.56 9.145 30.28 9.26 30.045C9.37 29.805 9.615 29.655 9.875 29.655ZM39.26 58.35L40.79 52.68C42.08 47.885 43.375 43.09 44.665 38.295C44.845 37.62 45.025 36.94 45.205 36.265C45.64 34.615 46.085 32.91 46.59 31.245C46.775 30.625 47.56 29.715 48.355 29.705C51.94 29.645 55.525 29.65 59.32 29.655C60.34 29.655 61.38 29.655 62.44 29.655C62.705 29.655 62.945 29.805 63.06 30.04C63.175 30.275 63.145 30.56 62.985 30.765L40.77 59.125C40.635 59.295 40.435 59.39 40.225 59.39C40.105 59.39 39.98 59.355 39.87 59.29L39.575 59.11C39.305 58.96 39.18 58.65 39.26 58.35ZM4.815 36.03C4.815 33.735 5.065 31.495 5.535 29.34C5.635 29.53 5.77 29.725 5.945 29.94C8.405 33.015 10.865 36.17 13.245 39.22C14.22 40.47 15.195 41.715 16.17 42.965L20.115 48.005C24.9 54.11 29.845 60.425 34.72 66.63C34.965 66.945 35.195 67.195 35.405 67.385C18.465 66.965 4.815 53.06 4.815 36.03ZM36.96 67.375C37.09 67.25 37.22 67.1 37.365 66.915C40.095 63.43 42.825 59.945 45.55 56.46C52.41 47.7 59.5 38.64 66.495 29.745C66.62 29.585 66.72 29.44 66.8 29.3C67.275 31.47 67.53 33.72 67.53 36.03C67.535 53.055 53.89 66.96 36.96 67.375Z" fill="#FCB813"/>
</svg>
